inDegrees=yes
nColumns=22
nRows=21
DataType=double
version=3
OpenSimVersion=4.5
endheader
time	pelvis_tilt	pelvis_list	pelvis_rotation	pelvis_tx	pelvis_ty	pelvis_tz	hip_flexion_r	hip_adduction_r	hip_rotation_r	knee_angle_r	ankle_angle_r	mtp_angle_r	hip_flexion_l	hip_adduction_l	hip_rotation_l	knee_angle_l	ankle_angle_l	mtp_angle_l	lumbar_extension	lumbar_bending	lumbar_rotation
0	0.6735566855184649	4.001184651567637	8.861116806954872	0	0.989044546264287	-0.02597202071778773	27.11923258721545	-8.701108568578904	-18.63067886957348	-11.57135620312155	0.6850822102908176	0	-17.24606704933376	3.980511313697567	-11.53483773922525	-11.42316565508858	10.15256866492011	0	-13.69996286274532	-2.307583053242989	-1.800679523644918
0.01192205840686784	0.7419657977808095	3.708333479037417	9.328854420896032	0.01963323133293182	0.9882239262943437	-0.02586254891636658	26.37001803955073	-8.256912428285341	-17.36434056680727	-12.50553482726136	0.6372656436832583	0	-17.74597503775612	3.126331091622843	-11.14757494076112	-12.49750143594833	8.69939009240561	0	-13.25484867298404	-1.745527602445031	-1.79132335234198
0.02384411681373569	0.7969946906430025	3.281647525764436	9.702116414291506	0.03901971113938907	0.9878608253867878	-0.02548524181731525	25.93963764313702	-7.681205697313314	-16.1702613662569	-13.72257592163683	-0.08502435782385229	0	-17.98188484847143	2.114909422307312	-10.77446965128431	-13.89681199896203	7.05199645150804	0	-12.82960164942176	-1.036052788314127	-1.727165861529365
0.03576617522060353	0.8310413952666057	2.69543902945828	9.975556520431629	0.05801822520176692	0.987932048590732	-0.02477112610210724	25.73611190141427	-6.919426532039856	-15.04120873670251	-14.99626704692694	-1.625571212344496	0	-17.82669455990881	0.91057295911023	-10.3963409365644	-15.82858525869936	5.242983450635473	0	-12.43593450971342	-0.1567497910297761	-1.593870064459216
0.04768823362747138	0.8449544195440905	2.066744276109471	10.14901191093791	0.07657830426379597	0.9883254344882014	-0.02374109854197253	25.71938769046239	-6.10649281438084	-13.95684549837824	-16.52027423605558	-2.982541650758893	0	-17.18499309868661	-0.3746032441017837	-9.978932707325718	-18.51141489344891	3.255526336501994	0	-12.1007233953929	0.760230206850139	-1.401641328877284
0.05961029203433922	0.8391870682356263	1.502063216099052	10.23080967942768	0.09458493956376679	0.9889174267533404	-0.02243852711373392	25.88460970792111	-5.400993459879574	-13.1156810788251	-18.47704788550982	-3.296445438997321	0	-15.95910923813603	-1.63618674278668	-9.425967891742912	-22.14734877701533	1.076255180432633	0	-11.85148701986797	1.593595543033637	-1.16199404922855
0.07153235044120705	0.8021543718749804	1.033712924123053	10.22682975352831	0.1120234765343505	0.989626842461223	-0.02090475697497881	26.11592522551991	-4.858895450990387	-12.72462913809811	-20.6036389428262	-2.783429280201267	0	-14.1344044535734	-2.805169305491535	-8.616643849983156	-26.78952129797836	-0.7707639474533388	0	-11.66407902782226	2.295231038068372	-0.8851568700582936
0.08345440884807491	0.7269091710959363	0.5921323350375665	10.17406608434545	0.1289635423227816	0.9904033173880809	-0.01917884577818505	26.26203670949825	-4.36845506225413	-12.76856433091064	-22.5252092086592	-1.841137440569362	0	-11.78939364347858	-3.900043740274339	-7.546228988597838	-32.23225593070724	-2.134147741506657	0	-11.48452235398337	2.92723738346786	-0.5906965558602619
0.09537646725494275	0.6073010202395216	0.1535788445624225	10.10765927776288	0.1454715640851867	0.9912241786071955	-0.01736905990750074	26.23351885111389	-3.864666347429312	-13.03570752062856	-24.02227168153808	-0.781781722431198	0	-9.132688372210055	-4.880454120786721	-6.280699707053966	-37.92264659482852	-3.346171161368141	0	-11.27813604560211	3.515804053240579	-0.2965802388681404
0.1072985256618106	0.4423207047157064	-0.3018960710612907	10.04704548331803	0.1615783423827585	0.9921170367161389	-0.0155722027211424	26.02918505431419	-3.323773933092723	-13.44106925711139	-25.07173451687346	0.2548711550315693	0	-6.311442620689178	-5.747289608613428	-4.977355096691389	-43.47007446455663	-4.879085541826261	0	-11.02690010045241	4.091891821261504	-0.01481558674046696
0.1192205840686784	0.2405935172201871	-0.7484980941552887	9.97121901748941	0.1772842145453838	0.9931438139327116	-0.01387860272473485	25.6915393322458	-2.771645308174123	-13.90952250134377	-25.76070796837882	1.225882567438288	0	-3.432503529332069	-6.426002480283186	-3.675807700878545	-48.63289180071843	-6.780411335985225	0	-10.7414560111677	4.643065086615837	0.2685753019798477
0.1311426424755463	0.01769436315092942	-1.151712775519983	9.855403110808073	0.1926242921504289	0.9943943950707532	-0.01236465178423354	25.24828768011292	-2.235683935203049	-14.34818892619709	-26.17003392436757	2.09565044319884	0	-0.6178544063129106	-6.82535100633127	-2.374847233889714	-53.16270791484291	-8.793385692027863	0	-10.44239750231882	5.147056691109631	0.5726431019019658
0.1430647008824141	-0.2057855981477202	-1.509463749619989	9.697582539155627	0.2076512293233119	0.9959460681395084	-0.01100100431853772	24.70293579391513	-1.711655732264052	-14.72057653333764	-26.34314249620445	2.825817708960822	0	2.061610834113655	-6.994469052041538	-1.196287385497244	-56.97897088395308	-10.32453066819846	0	-10.15049044642807	5.600986273326972	0.9035107743705035
0.154986759289282	-0.4118580742818322	-1.811457037525209	9.499392798150151	0.2223909023758109	0.9978216900219185	-0.009722569169807701	24.04853443837186	-1.206488412388175	-15.02189527058538	-26.3083771468176	3.427604770972201	0	4.586674924555905	-6.99371032682623	-0.2229211482076981	-60.15600876391381	-10.5945225006178	0	-9.889119915750097	5.984969003299069	1.266797136090638
0.1669088176961498	-0.5878431759664011	-2.044174484124129	9.264894407090937	0.2368612959909167	1.000020972249007	-0.008475811083717352	23.26544005072217	-0.7300692498641121	-15.25244240415031	-26.06956513310096	3.958749875139113	0	6.990040594809947	-6.865103223248702	0.5133338253971401	-62.758403503522	-10.17172066940598	0	-9.675731103525896	6.276419722227152	1.666806657049932
0.1788308761030176	-0.7260515660475167	-2.201465399001629	8.998210940520737	0.2510759538002545	1.002500216551093	-0.00722475785667316	22.33795449665104	-0.287198229401699	-15.41547912405843	-25.62410950360117	4.468142085634244	0	9.304552025114539	-6.643976910994846	1.002062519695737	-64.85563472066123	-9.462007357607144	0	-9.521246455062396	6.463742708812918	2.106096569428035
0.1907529345098855	-0.8224940949156911	-2.282629491705683	8.702672490645391	0.2650341749653136	1.005184864389181	-0.005949128884377049	21.26961722684804	0.1170854956520364	-15.51598688565191	-24.98962818216248	4.976326321360635	0	11.5520335254978	-6.357592724330583	1.249068697352735	-66.52315698244743	-8.512380136606728	0	-9.433666633946876	6.54423329919776	2.584562905632945
0.2026749929167534	-0.8768044084147167	-2.298160436548649	8.380832669473827	0.2787279835372933	1.007986033105506	-0.004637882088121713	20.08138171463134	0.4845066256255347	-15.56383931464323	-24.20050901851477	5.481483922269478	0	13.75244811828601	-6.034545089046745	1.273521309039156	-67.82051855047099	-7.433011256793984	0	-9.415793020499096	6.529655179473384	3.101020814396394
0.2145970513236212	-0.8916879483348649	-2.254612194058921	8.034819268860176	0.2921712246775716	1.010813255147063	-0.003281214908797504	18.79444937231666	0.8121965738538776	-15.57146226515855	-23.29119682420381	5.992445497376044	0	15.90896336615496	-5.692234479362904	1.098509173900846	-68.77955260102112	-6.25877740808977	0	-9.463655859445282	6.426076049623484	3.649472720765036
0.226519109730489	-0.8717874956262758	-2.160029674568178	7.666828147236272	0.3053887126923338	1.013584804177301	-0.001877082479180519	17.4333641063574	1.098756683646916	-15.54537499897475	-22.29937173211564	6.514849973674895	0	18.00502290112656	-5.34510739566092	0.7478624443197168	-69.38616073981765	-4.974896603692637	0	-9.569386834251683	6.242712074620581	4.220204116015883
0.2384411681373569	-0.8239143001574162	-2.025627050484137	7.278420478671938	0.3184013338623255	1.016227900392819	-0.0004375091884893376	16.02824576277261	1.345249069264024	-15.48778204362675	-21.26525880991567	7.039861644297064	0	20.01984943416167	-5.005665121797798	0.2483931378103511	-69.60519209181906	-3.607818600693902	0	-9.722602224625474	5.995365393008548	4.804188044463669
